<?xml version="1.0" encoding="UTF-8"?>
<!DOCTYPE svg PUBLIC "-//W3C//DTD SVG 1.1//EN" "http://www.w3.org/Graphics/SVG/1.1/DTD/svg11.dtd">
<!-- Creator: CorelDRAW 2018 (64 Bit) -->
<svg xmlns="http://www.w3.org/2000/svg" xml:space="preserve" width="297mm" height="297mm" version="1.1" style="shape-rendering:geometricPrecision; text-rendering:geometricPrecision; image-rendering:optimizeQuality; fill-rule:evenodd; clip-rule:evenodd"
viewBox="0 0 29700 29700"
 xmlns:xlink="http://www.w3.org/1999/xlink">
 <defs>
  <style type="text/css">
   <![CDATA[
    .fil0 {fill:none}
    .fil19 {fill:black}
    .fil20 {fill:#990202}
    .fil6 {fill:#C20000}
    .fil7 {fill:#C20202}
    .fil18 {fill:#D97503}
    .fil14 {fill:#DBA103}
    .fil11 {fill:#E80000}
    .fil9 {fill:#E80000}
    .fil15 {fill:#F00000}
    .fil17 {fill:#F0B000}
    .fil4 {fill:#F0BC00}
    .fil13 {fill:red}
    .fil5 {fill:red}
    .fil12 {fill:#FF2424}
    .fil8 {fill:#FF2424}
    .fil2 {fill:#FF6600}
    .fil3 {fill:#FFCC00}
    .fil1 {fill:yellow}
    .fil10 {fill:black;fill-rule:nonzero}
    .fil16 {fill:#8C0707;fill-rule:nonzero}
    .fil21 {fill:#D97503;fill-rule:nonzero}
   ]]>
  </style>
 </defs>
 <g id="Camada_x0020_2">
  <metadata id="CorelCorpID_0Corel-Layer"/>
  <rect class="fil0" width="29700" height="29700"/>
  <g id="_2639518975504">
   <path class="fil1" d="M18459.17 21899.14c813.2,112.05 1381.58,862.11 1269.53,1675.31 -29.43,213.52 -102.9,410.14 -209.89,582.02l291.67 965.8 419.34 1388.56 -1064.34 -985.45 -732.05 -677.78c-123.57,14.74 -250.99,14.16 -380.04,-3.63 -813.19,-112.05 -1381.58,-862.11 -1269.53,-1675.3 112.06,-813.2 862.12,-1381.58 1675.31,-1269.53z"/>
   <path class="fil1" d="M21264.79 20571.45c884.24,121.84 1502.27,937.43 1380.43,1821.66 -31.99,232.18 -111.88,445.98 -228.22,632.87l317.15 1050.18 455.98 1509.86 -1157.32 -1071.54 -796.01 -736.99c-134.36,16.03 -272.92,15.39 -413.24,-3.95 -884.23,-121.84 -1502.27,-937.42 -1380.43,-1821.66 121.84,-884.23 937.42,-1502.27 1821.66,-1380.43z"/>
   <path class="fil2" d="M18268.5 22199.97c521.15,71.81 885.41,552.5 813.6,1073.65 -18.86,136.84 -65.94,262.85 -134.51,372.99l186.92 618.96 268.74 889.88 -682.1 -631.54 -469.14 -434.37c-79.2,9.45 -160.86,9.07 -243.56,-2.32 -521.15,-71.82 -885.41,-552.5 -813.6,-1073.65 71.81,-521.15 552.5,-885.41 1073.65,-813.6z"/>
   <path class="fil2" d="M21057.46 20898.56c566.68,78.08 962.76,600.76 884.68,1167.44 -20.5,148.8 -71.71,285.81 -146.26,405.58l203.25 673.03 292.22 967.62 -741.69 -686.71 -510.13 -472.32c-86.11,10.28 -174.91,9.87 -264.84,-2.52 -566.67,-78.09 -962.75,-600.77 -884.67,-1167.45 78.09,-566.67 600.77,-962.76 1167.44,-884.67z"/>
   <path class="fil3" d="M17919.16 19821.27c0,0 1320.11,1631.58 1750.25,2032.06 430.14,400.48 689.72,630.38 689.72,630.38 0,0 207.66,459.81 630.38,563.64 422.72,103.83 660.05,-860.29 622.97,-1342.35 -37.09,-482.05 -1236.56,-3880.42 -1467.39,-4270.46 -230.84,-390.03 -2225.93,2386.73 -2225.93,2386.73z"/>
   <path class="fil4" d="M17919.16 19821.27c0,0 228.9,282.91 527.07,641.95 42.59,-235.06 188.54,-775.14 673.06,-1310.96 466.97,-516.4 1188.57,-471.52 1550.68,-407.64 -234.1,-641.77 -441.97,-1169.99 -524.88,-1310.08 -230.84,-390.03 -2225.93,2386.73 -2225.93,2386.73z"/>
   <path class="fil3" d="M19130.7 21271.15c218.06,250.38 415.14,467.13 538.71,582.18 430.14,400.48 689.72,630.38 689.72,630.38 0,0 207.66,459.81 630.38,563.64 422.72,103.83 660.05,-860.29 622.97,-1342.35 -15.48,-201.06 -233.2,-909.52 -498.47,-1695.37 -117.93,207.64 -300.24,443.07 -581.35,682.12 -488.36,415.3 -1019.87,547.85 -1401.96,579.4z"/>
   <path class="fil5" d="M18912.3 21017.63c300.07,351.72 593.21,683.1 757.11,835.7 430.14,400.48 689.72,630.38 689.72,630.38 0,0 207.66,459.81 630.38,563.64 422.72,103.83 660.05,-860.29 622.97,-1342.35 -16.81,-218.47 -272.38,-1035.93 -568.31,-1900.89 -145.49,220.9 -431.13,548.3 -991.06,849.47 -606.49,326.23 -958.36,375.44 -1140.81,364.05z"/>
   <path class="fil6" d="M19293.66 21456.27c90.64,101.67 174.47,193.19 246.85,268.65 314.17,109.92 775.76,223.08 931.84,133.89 79.27,-45.3 269.29,-160.66 367.96,-259.48 8.57,-11.21 15.45,-22.03 20.23,-32.27 34.09,-73.04 171.78,-470.27 228.37,-761.5 -1.55,-23.42 -5.6,-42.49 -12.77,-55.87 -60.18,-112.51 -432.06,-270.81 -650.82,-325.98 -108.17,76.88 -231.53,154.21 -372.21,229.87 -254.83,137.07 -464.68,225.23 -635.93,280.54 -46.91,145.86 -109.09,422.86 -123.52,522.15z"/>
   <path class="fil6" d="M19461.91 21641.55c80.92,87.14 151.71,159.83 207.5,211.78 70.03,65.2 135.52,125.86 196.12,181.76 165.25,-143.97 460.59,-377.78 849.21,-588.98 353.67,-192.22 608.04,-273.01 760.65,-307 -39.99,-136.38 -87.21,-289.78 -139.61,-454.61 -110.16,-16.47 -243.19,-31.77 -292.75,-18.92 -90.44,23.44 -1346.66,656.58 -1480.65,824.07 -31.31,39.13 -65.89,92.32 -100.47,151.9zm592.35 566.78c80.06,73.1 145.73,132.59 195.36,177.31 109.74,-109.69 330.71,-278.37 710.69,-367.55 317.64,-74.54 525.84,-81.38 650.78,-71.65 6.3,-87.71 6.88,-169.91 1.39,-241.44 -2.27,-29.5 -8.93,-70.01 -19.42,-119.99 -205.85,-21.97 -579.63,6.56 -953.47,233.39 -249.99,151.69 -446.48,287.7 -585.33,389.93zm365.65 384.74c32.27,51.38 77.4,115.36 135.55,179.56 104.09,-79.98 301.38,-200.88 580.34,-240.17 142.77,-20.12 265.47,-22.84 365.71,-17.53 32.06,-99.3 57.68,-204.66 76.54,-309.09 -179.08,-2.59 -434.43,15.47 -684.31,108.77 -238.61,89.08 -386.85,196.55 -473.83,278.46z"/>
   <path class="fil3" d="M14728.17 20007.71c0,0 1097.21,1914.75 1835.86,2574.51 738.65,659.77 1065.58,968.58 1065.58,968.58 0,0 248.32,550.96 659.6,465.61 411.28,-85.36 589.76,-884.63 325.92,-1831.37 -263.84,-946.73 -977.77,-2638.42 -977.77,-2638.42l-2909.19 461.09z"/>
   <path class="fil4" d="M14728.17 20007.71c0,0 528.02,921.36 1098.05,1706.07 -94.92,-330.48 -166.14,-1081.12 700.14,-1211.99 731.18,-110.46 1298,78.32 1576.64,204.29 -242.73,-631.25 -465.64,-1159.46 -465.64,-1159.46l-2909.19 461.09z"/>
   <path class="fil3" d="M16721.91 22723.5c627.51,562.63 907.69,827.3 907.69,827.3 0,0 248.33,550.96 659.61,465.61 411.28,-85.37 589.75,-884.64 325.91,-1831.37 -73.35,-263.23 -181.51,-584.05 -299.44,-910.09 -139.45,385.33 -425.34,931.13 -982.63,1246.12 -222.94,126.01 -427.96,185.32 -611.14,202.43z"/>
   <path class="fil6" d="M16309.42 22323.4c87.92,98.61 173.43,186.31 254.61,258.82 738.65,659.77 1065.58,968.58 1065.58,968.58 0,0 248.32,550.96 659.6,465.61 411.28,-85.36 589.76,-884.63 325.92,-1831.37 -86.27,-309.58 -220.67,-698.8 -362.5,-1082.49 -196.42,349.33 -814.48,1030.07 -1509.53,1172.8 -180.81,37.13 -322.52,50.07 -433.68,48.05z"/>
   <path class="fil5" d="M17240.28 23191.83c109.26,99.6 194.45,177.95 256.9,235.68 95.34,-142.71 269.09,-326.35 578.37,-467.49 270.62,-123.48 491.74,-166.13 651.83,-176.17 -11.93,-129.17 -32.99,-264.62 -63.78,-404.32 -77.05,2.78 -166.73,10.18 -263.25,25.95 -45.24,43.3 -95.81,90.25 -152.39,141.33 -312.92,282.43 -649.58,458.27 -941.62,540.27 -25.81,36.94 -47.63,72.03 -66.06,104.75zm441.1 454.68c28.74,47.55 69.05,107.03 119.91,164.69 133.37,-145 400.11,-351.35 726.39,-387.6 68.16,-7.58 127.71,-11.16 179.82,-11.82 22.86,-124.05 33.83,-263.06 31.56,-413.32 -160.13,29.12 -390.45,88.47 -606.27,207.65 -206.75,114.18 -356.89,296.55 -451.41,440.4z"/>
   <path class="fil5" d="M14016.36 18136.86c0,0 -177.53,184.64 -120.73,532.58 56.81,347.94 695.89,1448.6 845.01,1533.8 149.12,85.21 2123.19,-14.2 2755.17,-113.61 631.99,-99.41 2641.54,-2307.81 2776.46,-2726.76 134.93,-418.96 -480.44,-1568.92 -1110.59,-1708.95 -630.14,-140.03 -5145.32,2482.94 -5145.32,2482.94z"/>
   <path class="fil6" d="M17190.32 20127.76c119.63,-12.44 223.84,-25.29 305.49,-38.13 97.98,-15.42 229.12,-81.6 381.2,-183.86 427.9,-404.59 889.4,-1322.09 1029.03,-1625.62 171.17,-372.09 22.33,-677.22 -59.53,-863.27 -81.86,-186.04 -282.79,-320.01 -439.08,-334.88 -156.28,-14.87 -3512.59,1346.99 -3512.59,1346.99l-7.44 372.09c0,0 -74.42,587.92 409.31,878.16 381.19,228.7 1289.06,438.85 1893.61,448.52z"/>
   <path class="fil5" d="M17580.52 20066.93c47.82,-17.22 100.88,-42.6 158.21,-75.05 436.19,-298.26 954.03,-1324.94 1100.07,-1642.43 162.12,-352.39 21.17,-641.36 -56.37,-817.55 -77.53,-176.19 -267.81,-303.06 -415.82,-317.15 -148.01,-14.09 -3326.58,1275.65 -3326.58,1275.65l-7.05 352.4c0,0 -70.48,556.78 387.64,831.64 452.32,271.39 1687.77,515.25 2159.9,392.49z"/>
   <path class="fil6" d="M14016.36 18136.86c0,0 -58.08,60.44 -97.17,177.28 -5.48,110.64 0.5,251.78 52.57,341.72 96.28,166.28 997.71,472.61 2573.08,-113.78 1575.37,-586.39 2345.54,-1339.06 2634.36,-1899.18 243.58,-472.41 238.13,-814.08 72.95,-962.01 -30.06,-11.18 -60.25,-20.26 -90.47,-26.97 -55.94,-12.43 -143,-2.72 -254.28,24.63 -752.02,281.26 -3031.47,1455.55 -4224.46,2078.13 -405.15,228.31 -666.58,380.18 -666.58,380.18z"/>
   <path class="fil5" d="M15837.14 10233.8c2258.92,0 3794.33,3912.39 3370.67,5858.78 -166.21,763.69 -1294.29,1712.13 -2325.4,2081.99 -859.74,308.39 -1784.2,607 -2588.4,278.01 -645.24,-263.97 -2785.53,-2759.57 -2785.53,-4553.15 0,-553.52 193.03,-1172.02 461.52,-1643.76 694.4,-1220.06 2238.11,-2021.87 3867.14,-2021.87z"/>
   <path class="fil7" d="M15938.22 10327.66c220.48,0 776.41,188.81 981.97,257.9 -153.06,1231.62 -1231.19,2208.49 -2267.84,2571.67 -872.49,272.34 -1909.15,191.49 -2738.19,-231.97 -29.64,-15.14 -59.02,-30.73 -88.11,-46.74 69.61,-187.91 -215.33,-439.29 -123.19,-601.18 694.41,-1220.05 2606.33,-1949.68 4235.36,-1949.68z"/>
   <path class="fil8" d="M12258.79 11831.06c748.77,-937.25 2034.07,-1544.9 3399.79,-1593.91 149.46,316.82 234.82,682.2 234.82,1071.33 0,1211.03 -825.47,2192.74 -1843.73,2192.74 -866.8,0 -1593.76,-711.48 -1790.88,-1670.16z"/>
   <path class="fil3" d="M14777.32 10347.4c254.25,-54.94 515.32,-90.61 779.83,-105.48 27.18,54.06 55.44,117.71 82.75,191.58l-650.61 122.89c-76.72,-89.83 -151.89,-159.34 -211.97,-208.99zm899.24 193.99c42.3,135.93 76.36,291.24 98.66,453.34l-496.6 46.65c-59.82,-157.62 -139.34,-290.94 -221.66,-400.55l619.6 -99.44zm111.44 559.37c16.44,158.69 21.16,321.13 11.02,476.02l-426.88 -71.02c-4.98,-122.29 -23.38,-248.86 -62.14,-373.41l-0.77 -2.43 478.77 -29.16zm1.62 581.73c-4.54,39.92 -10.17,79.11 -16.97,117.4 -21.22,119.6 -62.73,241.44 -110.85,354.04l-320.7 -223.03c17.9,-100.74 30.88,-213.37 32.36,-331.78l416.16 83.37zm-171.87 568.59c-108.33,226.11 -228.44,394.78 -228.44,394.78l-171.84 -277.58c0,0 58.36,-134.87 103.73,-338.22l296.55 221.02z"/>
   <path class="fil3" d="M12369.18 11699.66c117.59,-133.25 246.36,-259.09 384.78,-376.87 -13.81,161.17 -16.51,428.83 58.47,710.78l-372.5 109.04c-42.59,-158.59 -62.25,-311.43 -70.75,-442.95zm472.81 433.13c31.44,94.98 72.45,190.33 125.49,282.64l-328.88 189.41c-70.98,-112.36 -123.95,-229.57 -163.36,-345.75l366.75 -126.3zm172 358.68c57.61,89.3 117.97,166.37 178.15,232.76l-249.08 229.44c-37.02,-32.83 -74.68,-68.44 -112.82,-107.06 -48.59,-49.22 -92.19,-100.6 -131.29,-153.49l315.04 -201.65zm240.84 298.28c57.87,57.29 114.62,105.01 167.61,144.46l-136.71 263.68c-80.29,-43.83 -168.17,-100.98 -260.99,-175.33l230.09 -232.81zm243.23 197.17c134.62,87.62 230.19,117.16 230.19,117.16l12.56 238.63c0,0 -143,2.11 -361.5,-97.88l118.75 -257.91z"/>
   <path class="fil6" d="M13018 11116.26c455.99,-327.73 993.66,-576.13 1572,-724.57 404.94,220.88 686.21,707.19 686.21,1271.7 0,772.34 -526.44,1398.42 -1175.84,1398.42 -649.37,0 -1175.81,-626.08 -1175.81,-1398.42 0,-194.16 33.3,-379.08 93.44,-547.13z"/>
   <path class="fil6" d="M18156.81 17451.69c-389.37,297.56 -840.48,565.45 -1274.4,722.88 -666.4,241.75 -1373.53,472.73 -2032.29,411.45 -62.41,-83.43 -109.17,-235.43 -155.92,-549.95 -77.03,-518.24 7.4,-1098.13 98.45,-1245.2 172.32,-309.64 1295.19,-687.69 1778.41,-757.72 742.12,-107.56 1772.18,1147.62 1585.75,1418.54z"/>
   <path class="fil9" d="M18097.78 17500.88c-389.37,297.56 -840.48,565.45 -1274.4,722.88 -635.89,230.69 -1308.87,451.54 -1941.51,418.04 -23.16,-85.2 -44.76,-195.81 -66.36,-341.14 -77.03,-518.25 7.4,-1098.14 98.45,-1245.21 172.32,-309.63 1295.19,-687.68 1778.41,-757.71 390.09,-56.53 859.67,263.47 1190.38,619.12 186.87,250.07 283.81,484.06 215.03,584.02z"/>
   <path class="fil9" d="M12136.63 15881.32c-358.44,-525.26 -627.68,-1077.65 -705.83,-1597.74 -82.25,-547.38 16.72,-1187.7 212.14,-1694.1 13.64,-35.35 28.06,-70.47 43.02,-105.39 298.22,275.76 555.28,928.94 639.54,1710.57 75.11,696.74 -5.7,1322.99 -188.87,1686.66z"/>
   <path class="fil6" d="M11797.07 12606.62c249.47,320.86 454.85,905.46 528.43,1588.04 64.79,601.04 13.54,1149.58 -119.34,1522.4 -287.26,-202.41 -543.18,-810.11 -622.8,-1548.85 -72.05,-668.28 19.71,-1262.58 213.71,-1561.59z"/>
   <path class="fil10" d="M11186.9 11091.44c-1.16,0.5 -402.19,178.43 -835.46,-18.61 -189.44,-86.14 -337.49,-317.44 -436.15,-573.91 -127.9,-332.44 -173.13,-708.63 -117.91,-864.61 98.26,-277.56 711.33,-483.17 713.09,-483.77l12.6 -4.31 2.38 13.17c58.43,323.26 144.62,644.76 256.5,964.22 111.87,319.49 249.45,636.94 410.62,952.03l5.61 10.95 -11.28 4.84zm-826.01 -39.57c382.28,173.84 738.47,49.52 805.56,23.08 -159.22,-312.39 -295.29,-627.08 -406.18,-943.77 -110.71,-316.14 -196.37,-634.39 -255,-954.5 -86.83,30.66 -599.66,220.79 -686.21,465.28 -53.71,151.74 -8.48,520.93 117.66,848.78 96.74,251.46 240.95,477.8 424.17,561.13z"/>
   <ellipse class="fil9" transform="matrix(0.664635 -0.472863 0.667853 0.938705 17403.8 12218.1)" rx="947.32" ry="1687.21"/>
   <path class="fil6" d="M18427.77 13850.1c-383.56,105.66 -1086.62,-387.2 -1653.56,-1184.09 -559.16,-785.93 -795.52,-1599.98 -585.51,-1936.59 383.55,-105.66 1086.61,387.2 1653.57,1184.08 559.17,785.96 795.53,1599.99 585.5,1936.6z"/>
   <circle class="fil5" transform="matrix(1.11036 -0 -0.0493829 1.15522 13442.4 9114.24)" r="3236.81"/>
   <path class="fil11" d="M11219.62 6566.6c0,0 956.02,-620.12 1774.22,-740.69 818.2,-120.58 792.37,241.15 792.37,241.15 0,0 -103.36,-94.74 -473.7,-25.84 -370.35,68.91 -1248.85,284.23 -1817.29,689.03 -568.44,404.79 129.19,180.87 129.19,180.87 0,0 206.7,-189.48 895.72,-413.41 689.03,-223.94 809.6,-146.43 809.6,-146.43l-172.25 206.71c0,0 -809.6,215.32 -1266.07,482.32 -456.47,266.99 -852.66,215.31 -852.66,215.31l-155.03 -645.96 335.9 -43.06z"/>
   <path class="fil12" d="M15532.68 6935.09c0,0 400.77,-169 825.7,33.8 424.93,202.81 622.9,1163.71 521.5,1434.12 -101.41,270.4 -714.64,463.55 -714.64,463.55 -105.1,-649.9 -321.44,-1294.44 -632.56,-1931.47z"/>
   <path class="fil11" d="M15556.83 7002.69c0,0 260.74,-115.87 492.52,77.27 231.78,193.14 473.2,1120.24 420.09,1380.99 -53.11,260.76 -299.37,410.44 -299.37,410.44l-613.24 -1868.7z"/>
   <path class="fil6" d="M15562.47 7100.29c0,0 234.17,-104.06 442.32,69.4 208.16,173.45 424.97,1006.06 377.27,1240.23 -47.69,234.18 -268.85,368.6 -268.85,368.6l-550.74 -1678.23z"/>
   <path class="fil13" d="M16008.23 7172.72l1.5 1.31 1.5 1.33c2.48,2.23 4.97,4.57 7.47,6.99l1.5 1.47c2.5,2.45 4.99,5 7.49,7.63l1.5 1.59 1.49 1.62c2,2.16 3.99,4.36 5.99,6.64l1.5 1.72 1.5 1.74 1.49 1.75 5.6 6.74 0.39 0.48 1.48 1.86 1.5 1.88 1.5 1.89 4.15 5.35 3.3 4.4 1.5 2.01 0.3 0.4 4.17 5.74 1.49 2.08 1.48 2.11 1.49 2.12 1.5 2.14 4.44 6.53 1.49 2.21 3.59 5.41 3.82 5.9 1.47 2.32 4.79 7.62 2.6 4.21 1.47 2.42 5.53 9.24 3.26 5.56 0.02 0.03 -418.84 175.43 -55.6 -169.42 379.18 -130.45zm195.85 339.37l6.16 15.97 0.88 2.3 0.31 0.78 0.56 1.51 0.88 2.31 6.07 16.22 0.86 2.32 0.08 0.21 0.79 2.13 0.85 2.33 5.13 14.09 0.85 2.35 0.14 0.4 0.7 1.96 0.85 2.38 0.84 2.36 0.84 2.37 1.69 4.75 0.84 2.37 0.84 2.38 0.83 2.38 0.84 2.39 1.66 4.77 0.83 2.4 0.83 2.4 0.83 2.39 0.83 2.41 0.81 2.4 0.83 2.4 0.82 2.41 2.45 7.24 0.81 2.42 0.82 2.41 0.81 2.42 0.8 2.43 0.82 2.42 0.81 2.44 3.2 9.72 0.79 2.44 0.8 2.44 0.79 2.45 0.8 2.44 0.79 2.44 -438.06 220.73 -61.48 -187.36 445.78 -184.92zm140.26 475.02l0.66 3.08 0.64 3.08 1.28 6.14 0.63 3.07 0.64 3.06 0.39 1.83 0.24 1.22 0.62 3.06 0.61 3.04 1.83 9.12 0.6 3.03 1.78 9.07 0.59 3.01 0.57 3 0.58 3.01 0.56 3 1.68 8.96 0.56 2.97 0.55 2.97 0.54 2.96 0.54 2.96 0.53 2.97 1.57 8.82 0.52 2.94 0.5 2.91 0.51 2.93 0.51 2.91 0.49 2.91 0.98 5.8 0.48 2.88 0.48 2.89 0.47 2.87 0.46 2.88 0.47 2.86 1.36 8.55 0.44 2.84 0.44 2.83 0.44 2.83 0.42 2.81 0.43 2.81 1.2 8.07 0.04 0.32 0.41 2.78 0.39 2.77 0.4 2.77 0.38 2.76 1.51 10.96 0.37 2.72 0.36 2.71 -381.64 245.54 -103.33 -314.86 55.39 118.26 396.93 -235.68zm29.35 457.01l-0.17 0.57c-9.4,32.8 -22.11,63.41 -36.85,91.75l-0.56 1.09 -3.48 6.52 -1.41 2.6 -3.42 6.16 -1.13 2 -4.29 7.36 -0.17 0.3 -4.47 7.42 -0.7 1.15 -4.34 6.92 -0.71 1.12 -4.27 6.58 -0.96 1.45 -4.4 6.57 -0.47 0.69c-6.82,9.98 -13.84,19.58 -20.95,28.79l-4.91 6.29 -0.51 0.66 -1.62 1.99 -3.86 4.79 -5.48 6.65 -0.05 0.07 -5.46 6.42 -0.34 0.4 -5.18 5.95 -0.63 0.71 -4.89 5.47 -4.89 5.36 -0.84 0.91 -3.76 4.02 -1.53 1.64 -1.48 1.56 -3.99 4.16 -0.27 0.28 -4.56 4.66 -1.02 1.04 -4.47 4.48 -0.94 0.91 -3.8 3.73 -1.17 1.16 -2.57 2.47 -2.76 2.63 -0.47 0.44 -4.14 3.91 -1.55 1.44 -3.67 3.39 -0.61 0.57 -3.28 2.97 -1.84 1.66 -3.48 3.11 -1.54 1.36 -3.68 3.22 -1.26 1.1 -3.86 3.31 -0.98 0.83 -4.02 3.4 -0.72 0.59 -4.16 3.46 -0.46 0.38 -4.28 3.49 -0.21 0.17 -4.38 3.5 -0.01 0.01 -4.22 3.33 -0.23 0.19 -3.84 2.98 -0.44 0.34 -3.5 2.67 -0.63 0.47 -3.14 2.37 -0.79 0.59 -2.82 2.09 -0.93 0.68 -2.49 1.82 -1.06 0.77 -2.19 1.57 -1.15 0.82 -1.9 1.35 -1.23 0.87 -1.62 1.13 -1.29 0.89 -1.36 0.94 -1.3 0.9 -1.12 0.76 -1.31 0.88 -0.9 0.6 -1.28 0.85 -0.69 0.47 -1.22 0.8 -0.52 0.34 -1.13 0.73 -0.36 0.23 -1 0.65 -0.24 0.15 -0.84 0.53 -0.14 0.09 -0.64 0.4 -0.06 0.04 -0.41 0.25 -0.02 0.01 -0.15 0.1 -48.31 -147.25 308.8 -187.16zm-260.49 334.41l-293.42 -894.16z"/>
   <path class="fil3" d="M12167.31 15605.92c-1.62,0.25 -39.03,-189.75 -143.33,-283.64 -347.9,-313.15 -1203.4,-1113.78 -2143.05,-2161.17 -1095.24,-1220.77 -1947.96,-2495.2 -2185.49,-2903.98 338.19,-495.04 914.3,-1191.9 1610.76,-1442.94 160.9,-57.99 292.53,-122.7 399.88,-191.32 323.49,628.03 719.38,1414.47 1060.2,2097.69 413.08,828.12 884.22,1414.94 1254.63,2207.7 306.87,656.76 369.31,2287.5 146.4,2677.66z"/>
   <path class="fil14" d="M10072.31 13372.35c-63.31,-69.22 -127.15,-139.63 -191.38,-211.24 -437.33,-487.45 -835.91,-983.4 -1172.18,-1429.44 125.85,-457.45 333.84,-932.23 564.82,-1215.37 236.05,-289.36 668.28,-502.49 1178.77,-423.03 107.28,213.62 213.02,424.98 313.94,627.29 413.08,828.12 884.22,1414.94 1254.63,2207.7 191.25,409.3 287.55,1196.88 279.01,1826.72 -53.64,-252.06 -132.32,-579.28 -245.03,-964.84 -275.23,-941.6 -985.05,-2303.29 -1854.2,-1694.87 -446.38,312.47 -338.7,838.87 -128.38,1277.08z"/>
   <path class="fil15" d="M8230.04 11073.12c-332.76,-475.69 -545.98,-822.22 -591.75,-921.58 -101.23,-219.73 -100.12,-212.32 -100.12,-212.32 0,0 -185.32,-123.73 -275.79,-322.34 -90.47,-198.6 -67.94,-452.09 -67.94,-452.09 0,0 -327.99,-64.4 -364,-354.55 -36.01,-290.15 68.85,-298.33 68.85,-298.33 0,0 -163.13,-278.63 -5.68,-491.76 157.44,-213.13 383.89,-118.31 383.89,-118.31 0,0 -156.93,-235.11 79.6,-527 236.52,-291.9 475.32,-115.51 475.32,-115.51 0,0 -101.16,-353.28 279.77,-430.55 380.94,-77.27 717.58,289.8 985.74,669 106.74,150.93 516.33,939.17 970.21,1833.99 -104.13,41.28 -222.04,89.86 -355.49,147.05 -539.26,231.11 -1103.19,979.78 -1482.61,1594.3z"/>
   <path class="fil5" d="M9237.33 12419.96c0,0 -180.75,169.98 -387.94,58.3 -207.2,-111.68 -1099.5,-1508.9 -1225.29,-1870.84 -125.79,-361.94 497.83,-1280.79 1013.33,-1651.82 515.5,-371.02 1122.24,-557.41 1347.29,-432.54 225.04,124.86 1044.89,1937.62 1041.84,2128.49 -3.05,190.88 -185.78,242.14 -185.78,242.14 0,0 -155.26,-74.94 -432.85,44.38 -277.59,119.32 -933.58,620.9 -1106.19,882.66 -172.61,261.76 -170.81,452.55 -143.8,493.26 27.02,40.71 79.39,105.97 79.39,105.97z"/>
   <path class="fil6" d="M9237.33 12419.96c0,0 -8.41,7.91 -23.66,19.18 -72.33,33.45 -289.39,118.73 -387.62,-9.61 -490.64,-640.95 1090.44,-1990.14 1860.19,-1950.24 406.7,21.07 322.98,360.96 154.54,414.4 0,0 -155.26,-74.94 -432.85,44.38 -277.59,119.32 -933.58,620.9 -1106.19,882.66 -172.61,261.76 -170.81,452.55 -143.8,493.26 27.02,40.71 79.39,105.97 79.39,105.97z"/>
   <path class="fil16" d="M8523.05 8797.05c10.47,-2.4 20.92,4.16 23.32,14.63 2.4,10.47 -4.16,20.92 -14.63,23.32 -0.67,0.15 -237.18,56.84 -340.19,-79.65 -81.31,-107.76 -35.88,-359.08 -14.92,-453.58 -126.07,47.66 -552.58,188.85 -625.62,-51.42l-3.77 -13.26c-34.81,-131.98 2.66,-285.45 100.16,-421.14 96.38,-134.15 251.77,-251.32 453.88,-312.75 12.49,-3.79 24.63,-7.27 36.31,-10.34 216.55,-57.1 380.36,-53.8 512.59,-10.79 132.73,43.16 232.86,126 322.25,227.81 177.09,201.72 244.81,407.86 245,408.45 3.37,10.18 -2.16,21.17 -12.35,24.54 -10.18,3.36 -21.17,-2.17 -24.54,-12.35 -0.18,-0.57 -65.41,-199.16 -237.37,-395.04 -85.13,-96.97 -180.09,-175.73 -305.04,-216.36 -125.43,-40.8 -282.05,-43.61 -490.63,11.39 -12.36,3.25 -24,6.56 -34.93,9.87 -193.42,58.79 -341.82,170.51 -433.63,298.29 -90.71,126.24 -125.88,267.84 -94.07,388.51l3.33 11.88c73.08,240.41 606.97,13.47 608.49,12.83 3.84,-1.56 8.19,-1.97 12.5,-0.84 10.39,2.73 16.6,13.39 13.87,23.78 -0.25,0.97 -90,338.32 -0.4,457.04 87.61,116.1 299.79,65.32 300.39,65.18z"/>
   <path class="fil16" d="M7820.79 7292.68c-2.6,-10.43 3.75,-21.02 14.18,-23.63 10.44,-2.6 21.03,3.75 23.63,14.19 0.01,0.07 8.29,29.33 49.78,121.76 40.46,90.07 60.08,107.67 60.13,107.7 8.25,6.85 9.37,19.11 2.52,27.36 -6.85,8.25 -19.11,9.38 -27.36,2.52 -0.07,-0.05 -26.73,-23.62 -70.79,-121.73 -43.01,-95.78 -52.08,-128.09 -52.09,-128.17z"/>
   <path class="fil16" d="M7271.66 7915.08c-3.36,-10.18 2.17,-21.17 12.35,-24.53 10.19,-3.37 21.18,2.16 24.54,12.35 0.13,0.39 44.18,139.77 123.99,195.45 77.29,53.93 91.03,49.53 91.05,49.53 10.18,-3.37 21.17,2.16 24.54,12.35 3.36,10.18 -2.17,21.17 -12.35,24.53 -0.08,0.03 -32.22,10.52 -125.49,-54.54 -90.77,-63.32 -138.49,-214.72 -138.63,-215.14z"/>
   <path class="fil16" d="M6890.85 8552.15c-6.05,-8.87 -3.76,-21 5.11,-27.06 8.87,-6.06 21,-3.77 27.06,5.1 0.47,0.69 164.99,243.59 429.98,254.12 104.37,4.16 173.84,-17.63 219.74,-49.9 67.83,-47.69 84.67,-119.15 87.15,-161.7 4.29,-73.69 -34.29,-200.6 -34.39,-200.96 -3.11,-10.26 2.68,-21.13 12.95,-24.24 10.26,-3.11 21.13,2.69 24.24,12.95 0.11,0.38 40.74,134.05 36.07,214.4 -2.93,50.24 -22.92,134.67 -103.63,191.42 -52.14,36.66 -129.49,61.44 -243.66,56.9 -284.72,-11.33 -460.12,-270.29 -460.62,-271.03z"/>
   <path class="fil16" d="M7188.31 9183.87c-10.34,-2.89 -16.38,-13.65 -13.49,-24 2.89,-10.34 13.65,-16.38 24,-13.49 0.39,0.11 140.73,40.69 218.62,-99.22 80.55,-144.73 31.77,-248.16 31.65,-248.45 -4.51,-9.76 -0.23,-21.34 9.52,-25.84 9.76,-4.51 21.34,-0.23 25.84,9.53 0.15,0.33 57.25,121.46 -33.02,283.65 -92.97,167.01 -262.63,117.95 -263.12,117.82z"/>
   <path class="fil17" d="M9854.18 9703.11c-56.6,-926.12 65.39,-1803.72 341.75,-2635.78 68.31,-205.71 122.73,-343.4 192.27,-488.13 110.4,-229.69 679.17,-272.37 831.1,-147.97l1020.08 731.04 942.89 -1604.05c116.02,-191.75 233.25,-423.47 436.93,-443.03 336.66,-32.33 649.52,158.05 748.49,234.68 866.43,670.79 1967.12,2425.16 1996.53,4059.72 25.72,1429.35 -766.9,2848.85 -1954.37,3264.88 -872.49,272.34 -1909.15,191.49 -2738.19,-231.98 -306.29,-156.43 -584.24,-359.65 -815.11,-609.08 -527.78,-570.21 -768.61,-1123.09 -932.26,-1807.87 -24.91,-104.25 -48.04,-211.55 -70.11,-322.43z"/>
   <path class="fil3" d="M9843.96 9479.6c-25.66,-844.11 97.93,-1647.43 351.97,-2412.27 68.31,-205.71 122.73,-343.4 192.27,-488.13 37.01,-76.99 125.54,-132.93 232.58,-168.64 54.9,2.62 108.63,20.01 159.64,52.79 340.64,218.98 1257.16,851.61 1346.37,713.74 11.74,-18.15 25.31,-40.95 40.02,-66.82l72.57 52 942.89 -1604.05c66.55,-109.99 133.51,-233.1 216.94,-321.81 63.84,-38.64 146.83,-68.82 221.85,-33.28 148.78,70.48 1801.16,1863.8 1777.67,2858.37 -23.49,994.56 -900.59,1636.71 -924.08,1942.13 -23.49,305.41 657.25,1772.8 46.43,2335.91 -335.25,309.04 -877.44,462.82 -1369.49,488.2 -321.2,-15.97 -641.78,-72.16 -947.21,-168.2 -7.43,-4.78 -14.65,-9.63 -21.63,-14.6 -429.49,-305.4 -372.23,-1173.94 -744.45,-1698.86 -372.22,-524.93 -1336.19,-620.38 -1488.9,-1040.32 -42.99,-118.24 -78.83,-260.22 -105.44,-426.16z"/>
   <path class="fil17" d="M12736.9 8135c-29.54,-36.34 -72.69,-68.13 -81.78,-243.05 -9.09,-174.91 29.54,-304.38 84.05,-372.53 54.51,-68.16 714.98,-741.02 1018.28,-836.07 303.29,-95.06 507.96,554.47 537.02,654.82 29.05,100.34 73.94,266.7 34.33,303.67 -39.61,36.97 -1143.42,401.4 -1143.42,401.4l-396.11 113.54 -52.37 -21.78z"/>
   <path class="fil17" d="M10585.69 9137.6c0,0 -130.67,17.6 -188.45,-47.74 -57.79,-65.33 -185.94,-610.59 -115.59,-819.13 70.36,-208.54 505.04,-193.47 778.93,-170.86 273.89,22.62 419.63,82.92 454.8,153.28 35.17,70.35 130.65,404.54 128.14,452.28 -2.51,47.74 -281.43,163.31 -394.49,201.01 -113.06,37.69 -663.34,231.16 -663.34,231.16z"/>
   <path class="fil17" d="M10590.31 6421.47c214.55,-82.46 523.06,-76.97 628.99,9.76l1020.08 731.04 78.55 -133.62 4.31 3.45c0,0 -233.03,384.78 -327.86,438.98 -94.84,54.19 -1232.89,-1016.13 -1365.66,-1045.93 -12.8,-2.87 -25.65,-4 -38.41,-3.68z"/>
   <path class="fil18" d="M11370.54 8238.42c84.57,-22.61 122.88,-30.63 150.71,51.71 27.82,82.34 85.82,261.34 107.39,349.81 21.57,88.46 16.45,97.45 -102.38,154.89 -118.84,57.44 -753.54,300.07 -926.1,337.51 -172.57,37.44 -256.16,-433.19 -54.01,-549.37 202.15,-116.19 739.81,-321.95 824.39,-344.55z"/>
   <path class="fil19" d="M11556.06 8394.93c27.98,85.99 56.06,177.21 72.58,245.01 19.57,80.26 24.71,96.73 -47.95,131.86 -151.04,73.01 -630.8,261.11 -908.89,341.23l-7.64 -21.16c-44.75,-124.26 -116.27,-264.36 10.89,-337.44 178.6,-102.67 659.25,-282.81 881.01,-359.5z"/>
   <path class="fil18" d="M13944.09 7148.51c152.19,-40.66 351.65,320.2 370.61,398 19.55,80.26 24.7,96.75 -47.95,131.86 -165.01,79.76 -1190.34,388.51 -1441.1,476.57 -190.03,66.72 -146.27,-488.16 -61.03,-538.81 217.8,-129.41 1089.69,-443.64 1179.47,-467.62z"/>
   <path class="fil19" d="M14201.12 7333.25c60.41,86.87 105.09,178.44 113.58,213.26 19.55,80.26 24.7,96.75 -47.95,131.86 -151.92,73.44 -1033.06,340.95 -1367.58,451.66 -5.03,-140.57 28.02,-302.79 72.29,-329.09 217.8,-129.41 1089.69,-443.64 1179.47,-467.62 16.27,-4.36 33.1,-4.07 50.19,-0.07z"/>
   <path class="fil18" d="M11869.39 10629.43c0,0 -67.62,-267.59 -52.92,-311.69 14.7,-44.1 1290.83,-508.7 1387.87,-517.52 97.04,-8.81 291.1,194.08 299.92,252.89 8.83,58.81 -1634.87,576.32 -1634.87,576.32z"/>
   <path class="fil19" d="M13405.83 9918.91c53.13,52.31 94.47,107.78 98.43,134.2 7.31,48.66 -1116.62,411.31 -1504.86,535.06 -16.3,-76.69 -32.02,-164.61 -24.15,-188.05 14.7,-43.8 1290.84,-482.02 1387.88,-488.83 12.76,-0.9 27.22,1.94 42.7,7.62z"/>
   <path class="fil17" d="M12757.02 12241.34c255.69,-91.69 1014.94,-337.96 1480.26,-411.23 678.67,-106.87 539.47,491.01 10.99,745.11 -333.58,160.43 -765.09,245.76 -966.34,268.69 -530.16,60.39 -1574.73,-226.07 -524.91,-602.57z"/>
   <polygon class="fil6" points="14616.86,15793.36 13587.06,15108.38 13722.19,14367.48 15409.01,13729.1 16089.33,14176.44 15861.01,15350.69 "/>
   <polygon class="fil9" points="14641.14,15949.55 13611.34,15264.58 13746.48,14523.68 15433.29,13885.3 16113.62,14332.63 15885.3,15506.88 "/>
   <polygon class="fil20" points="14664.77,15864.42 13715.37,15226.72 13822.13,14594.57 15428.57,13998.74 16019.06,14379.89 15823.84,15445.39 "/>
   <path class="fil5" d="M14328.56 15638.58l-329.27 -221.15c32.7,-242.36 139.41,-461.21 296.63,-633.11l-63.76 -334.79 205.97 -73.94 135.79 184.82c94.94,-55.07 198.35,-97.15 307.74,-123.94l-57.99 -208.75 237.67 -89.79 177.06 267.34c277.01,17.91 527.78,132 719.36,309.18l-53.36 291.27 2.38 1.11 -90.54 434.58 -1155.26 427.34 -329.55 -235.4 -0.06 -1.1 -2.81 6.33zm1376.77 -668.74c-95.72,-25.27 -196.22,-38.73 -299.88,-38.73 -410.64,0 -771.92,211.07 -981.46,530.59l276.83 236.84 963.32 -354.91 41.19 -373.79z"/>
   <polygon class="fil6" points="13612.02,15264.96 13070.45,14942.94 13158.27,14518.47 13743.75,14508.71 "/>
   <polygon class="fil6" points="15428.31,13886.91 16125.99,14335.78 16218.7,13682 15877.18,13501.47 "/>
   <path class="fil3" d="M18209.93 12867.33c0,0 337.27,883.41 -22.59,915.04 -191.59,16.83 -697,-372.46 -1084.04,-813.28 -339.98,-387.23 -571.49,-814.26 -653.8,-1040.65 -176.02,-484.11 -102.7,-2743.35 -73.35,-3990.32 29.34,-1246.96 -146.7,-3858.28 102.69,-4225.03 249.39,-366.75 739.84,-80.69 739.84,-80.69 0,0 237.34,-220.78 518.83,-118.67 281.49,102.11 306.33,162.83 306.33,162.83 0,0 223.54,-77.27 433.28,85.55 209.74,162.82 234.58,405.68 234.58,405.68 0,0 295.3,-38.63 372.57,126.95 77.27,165.59 -107.64,507.79 -107.64,507.79 0,0 260.55,1158.96 239.27,2605.75 -21.28,1446.79 -1005.97,5459.05 -1005.97,5459.05z"/>
   <path class="fil14" d="M18209.93 12867.33c0,0 337.27,883.41 -22.59,915.04 -191.59,16.83 -697,-372.46 -1084.04,-813.28 -339.98,-387.23 -571.49,-814.26 -653.8,-1040.65 -176.02,-484.11 -102.7,-2743.35 -73.35,-3990.32 3.39,-144.67 4.02,-307.87 2.88,-483.63 933.83,-182.31 2114.59,-201.55 2831.25,111.89 -15.85,300.68 -62.73,682.31 -128.12,1102.63 -582.38,-388.38 -1374.54,-673.31 -1767.75,-390.19 -193.9,52.88 -793.26,1939.06 -458.32,3208.28 334.93,1269.21 1057.67,1921.46 1145.81,1657.03 46.25,-138.71 228.36,-806.17 464.83,-1373.86 -147,649.6 -256.8,1097.06 -256.8,1097.06z"/>
   <path class="fil15" d="M16360.58 6378.86c-25.07,-1172.93 -48.42,-2420.65 118.26,-2665.77 249.39,-366.75 739.84,-80.69 739.84,-80.69 0,0 237.34,-220.78 518.83,-118.67 281.49,102.11 306.33,162.83 306.33,162.83 0,0 223.54,-77.27 433.28,85.55 209.74,162.82 234.58,405.68 234.58,405.68 0,0 295.3,-38.63 372.57,126.95 77.27,165.59 -107.64,507.79 -107.64,507.79 0,0 143.42,638.14 208.74,1558.37 -266.88,-91.96 -665.73,-173.78 -1251.77,-158.5 -644.83,16.82 -1192.08,99.59 -1573.02,176.46z"/>
   <path class="fil5" d="M16365.41 8204.13c0,0 -248.84,-58.55 -292.75,-190.28 -43.9,-131.74 -117.1,-2012.59 -51.23,-2188.23 65.88,-175.64 1105.11,-497.66 2232.15,-329.33 1127.04,168.32 1170.95,322.03 1200.23,453.75 29.27,131.72 71.48,1478.07 -26.57,2039.89 -98.05,561.83 -302.77,375.2 -302.77,375.2 0,0 -409.83,-417.14 -1383.19,-461.06 -973.36,-43.92 -1375.87,300.06 -1375.87,300.06z"/>
   <path class="fil6" d="M19149.65 8381.64c-15.75,-7.94 -25.18,-16.51 -25.18,-16.51 0,0 -409.83,-417.14 -1383.19,-461.06 -923.82,-41.68 -1333.35,266.02 -1372.66,297.45l-1.08 -0.07c-27.07,0 -267.73,-69.2 -234.65,-210.58 33.09,-141.39 755.1,-427.19 1498.15,-388.08 743.05,39.11 1332.69,249.7 1525.22,451.25 192.53,201.55 117.31,285.79 57.15,312.86 -29.42,13.24 -50.2,15.69 -63.76,14.74z"/>
   <path class="fil16" d="M16664.08 4924.23c4.11,9.85 -0.43,21.22 -10.22,25.44 -9.84,4.24 -21.29,-0.3 -25.53,-10.14 -0.67,-1.56 -1.33,-3.48 -1.88,-5.6l-0.25 -1.11c-7.24,-30.65 -23.37,-204.5 28.67,-399.29 52.84,-197.84 175.47,-419.13 447.34,-540.02 45.69,-20.31 95.66,-37.79 150.23,-51.81 236.45,-60.72 406.5,-44.06 522.69,10.86 74.32,35.14 126.79,85.94 160.65,142.34 33.89,56.48 49.04,118.64 48.79,176.45 -0.3,72.46 -24.97,138.61 -67.36,179.21 -110.28,105.57 -228.79,197.36 -285.91,240.07 111.89,27.63 411.84,118.86 477.4,315.52 78.71,236.12 52.37,400.83 52.3,401.3 -1.55,10.65 -11.46,18.02 -22.11,16.46 -10.64,-1.55 -18.01,-11.46 -16.46,-22.1 0.06,-0.45 25.05,-156.47 -50.62,-383.47 -73.51,-220.54 -489.04,-298.71 -490.24,-298.94 -4.72,-0.96 -9.11,-3.62 -12.12,-7.85 -6.22,-8.74 -4.17,-20.91 4.58,-27.13 0.47,-0.33 166.08,-118.19 316.2,-261.9 34.9,-33.42 55.2,-89.3 55.47,-151.34 0.21,-51.11 -13.23,-106.18 -43.31,-156.3 -30.14,-50.21 -77.09,-95.53 -143.88,-127.11 -108.83,-51.45 -269.98,-66.59 -496.46,-8.42 -52.27,13.43 -100.17,30.18 -143.99,49.66 -258.41,114.91 -375.13,325.87 -425.54,514.59 -50.26,188.13 -35.26,352.52 -28.56,380.06l0.12 0.57z"/>
   <path class="fil16" d="M17243.6 3666.7c-8.79,-6.14 -10.95,-18.27 -4.81,-27.06 6.14,-8.79 18.27,-10.95 27.06,-4.81 0.12,0.08 44.84,31.65 90.34,117.58 45.74,86.4 43.21,110.09 43.21,110.15 0,10.77 -8.74,19.51 -19.52,19.51 -10.77,0 -19.51,-8.74 -19.51,-19.51 0,-0.05 2.26,-14.78 -38.63,-92.02 -41.15,-77.71 -78.04,-103.77 -78.14,-103.84z"/>
   <path class="fil16" d="M18063.15 3733.29c-7.03,-8.13 -6.14,-20.42 1.98,-27.45 8.12,-7.02 20.41,-6.14 27.44,1.99 0.53,0.61 186.38,213.74 144.17,501.73 -43.15,294.36 -303.06,317.31 -303.8,317.38 -10.68,1.05 -20.2,-6.78 -21.25,-17.46 -1.05,-10.68 6.77,-20.2 17.45,-21.25 0.65,-0.06 230.34,-20.31 269.03,-284.31 39.61,-270.35 -134.53,-470.07 -135.02,-470.63z"/>
   <path class="fil16" d="M18698.86 4207.3c-1.63,-10.6 5.64,-20.54 16.24,-22.17 10.6,-1.64 20.54,5.63 22.17,16.23 0.13,0.84 47.5,294.98 -185.04,484.98 -118.02,96.44 -236.84,98.94 -333.12,71.95 -94.71,-26.57 -166.76,-81.83 -194.06,-102.94 -54.46,-42.08 -84.49,-77.11 -84.57,-77.21 -7.06,-8.07 -6.25,-20.36 1.83,-27.43 8.07,-7.06 20.37,-6.24 27.43,1.84 0.07,0.08 27.66,32.28 79.09,72.02 25.62,19.81 93.22,71.67 180.79,96.23 86.01,24.11 192.27,21.81 298.07,-64.64 215.14,-175.79 171.29,-448.07 171.17,-448.86z"/>
   <path class="fil16" d="M18916.76 4810.43c4.21,-9.88 15.66,-14.49 25.54,-10.29 9.89,4.21 14.49,15.66 10.29,25.54 -5.48,12.79 -41.87,53.42 -114.08,79.07 -40.98,14.55 -94.43,25.14 -161.59,24.2 -179.22,-2.49 -265.47,-60.8 -265.71,-60.96 -8.96,-5.97 -11.38,-18.09 -5.41,-27.05 5.96,-8.97 18.08,-11.39 27.05,-5.42 0.22,0.14 77.21,52.25 244.53,54.56 61.86,0.86 110.81,-8.79 148.19,-22.06 59.89,-21.27 87.61,-49.24 91.19,-57.59z"/>
   <path class="fil5" d="M19678.05 18227.01c-227.54,131.26 -411.35,-157.54 -568.88,-498.87 -201.72,-437.08 -124.68,-516.79 -520.82,-657.51 498.08,-460.61 670.94,-1162.17 682.82,-1389.02 0,0 284.36,-106.44 651.94,252.38 367.58,358.83 475.01,1084.44 478.07,1198.16 3.9,145.84 -38.13,699.69 -723.13,1094.86z"/>
   <path class="fil6" d="M19678.05 18227.01c-227.54,131.26 -411.35,-157.54 -568.88,-498.87 -201.72,-437.08 -124.68,-516.79 -520.82,-657.51 498.08,-460.61 670.94,-1162.17 682.82,-1389.02 0,0 96.37,-36.03 249.4,4.59 16.2,62.98 15.94,143.21 11.84,225.35 -8.77,175.39 -83.31,499.87 -210.48,719.1 -127.16,219.24 -285,372.71 -311.31,381.48 -26.31,8.76 -70.16,65.77 -70.16,96.47 0,30.7 245.54,350.78 394.63,688.41 149.09,337.63 324.47,363.93 385.86,342.01l159.87 -46.86c-60.39,46.36 -127.72,91.56 -202.77,134.85z"/>
   <path class="fil6" d="M14797.71 18583.42c0,0 -53.5,194.87 -15.28,320.99 38.21,126.11 328.65,1077.65 321,1226.68 -7.65,149.03 -328.64,91.71 -657.28,99.35 -328.65,7.64 -615.24,-752.82 -714.6,-1184.64 -99.37,-431.82 213.99,-821.6 213.99,-821.6 0,0 248.39,202.55 473.86,271.33 225.46,68.77 378.31,87.89 378.31,87.89z"/>
   <path class="fil5" d="M14788.24 20234.84c-103.09,-1.31 -222.07,-7.19 -342.09,-4.4 -328.65,7.64 -615.24,-752.82 -714.6,-1184.64 -42.89,-186.4 -8.86,-364.93 43.65,-507.69 15.03,65.16 59.76,129.61 156.92,180.84 324.27,170.99 536.51,94.33 624.96,212.26 88.44,117.92 400.92,984.6 395.02,1137.89 -2.72,70.67 -80.66,126.31 -163.86,165.74z"/>
   <path class="fil5" d="M15956.88 21902.66c0,0 -79.84,59.86 -79.84,195.59 0,135.72 467.04,738.48 746.46,910.12 279.42,171.64 985.96,27.94 1600.69,-526.91 614.74,-554.85 522.92,-626.71 522.92,-738.48 0,-111.76 -235.51,-742.46 -343.29,-874.19 -107.78,-131.73 -275.43,-83.82 -275.43,-83.82l47.91 99.79c0,0 -107.8,283.41 -399.19,546.87 -291.39,263.46 -798.34,602.75 -1145.62,674.6 -347.29,71.86 -506.96,-7.98 -506.96,-7.98l-167.65 -195.59z"/>
   <path class="fil6" d="M15956.88 21902.66c0,0 -79.84,59.86 -79.84,195.59 0,57.35 83.41,198.12 200.83,354.51 320.96,55.01 840.41,28.93 1260.16,-234.76 622.71,-391.19 1101.71,-973.99 1077.76,-1257.4 -3.3,-39.04 -9.78,-72.07 -18.98,-99.99 -107.88,-121.5 -268.42,-75.64 -268.42,-75.64l47.91 99.79c0,0 -107.8,283.41 -399.19,546.87 -291.39,263.46 -798.34,602.75 -1145.62,674.6 -347.29,71.86 -506.96,-7.98 -506.96,-7.98l-167.65 -195.59z"/>
   <path class="fil6" d="M16329.45 22781.57c-122.47,-89.51 -116.12,-229.84 -123.3,-269.28 -7.18,-39.45 115.13,-589.94 168.79,-680.49 53.66,-90.56 747.9,-489.64 925.64,-479.59 177.74,10.06 734.49,224.72 811.62,368.92 77.13,144.2 -177.74,895.44 -224.71,996.06 -46.96,100.62 -305.2,258.24 -399.1,311.9 -214.14,122.37 -1036.48,-158.01 -1158.94,-247.52z"/>
   <path class="fil5" d="M17684.51 22905.57c-75.8,52.66 -153.17,98.97 -196.13,123.52 -211.55,120.89 -1016.65,-151.28 -1154.12,-244.18 -7.77,-36.18 -8.33,-66.55 -11,-81.2 -6.36,-34.96 101.99,-522.6 149.52,-602.82 47.53,-80.2 662.53,-433.74 819.96,-424.84 157.46,8.92 650.65,199.08 718.98,326.81 6.77,12.66 10.62,30.69 12.07,52.85 -53.52,275.43 -183.74,651.12 -215.98,720.2 -17.73,37.98 -65.58,84.08 -123.3,129.66z"/>
   <path class="fil5" d="M18629.41 20950.6c0,0 552.18,828.76 772.8,915.98 220.61,87.22 1051.36,-37.79 1698.2,-621.72 599.33,-541.06 412.32,-812.44 386.67,-950.97 -25.66,-138.52 -236.01,-687.47 -236.01,-687.47 0,0 -1087.65,933.75 -1492.96,1103.05 -405.31,169.3 -949.13,174.43 -949.13,174.43l-143.66 -164.18 -35.91 230.88z"/>
   <path class="fil6" d="M18651.23 20725.92c0,0 -120.94,311.2 166.1,401.26 287.04,90.05 1169.62,-97.05 1631.15,-417.87 461.53,-320.82 799.46,-759.89 827.5,-965.88 36.67,-269.27 -322.47,-203.72 -322.47,-203.72 0,0 148.78,82.08 -425.83,528.44 -574.61,446.36 -1231.32,702.88 -1492.97,749.06 -261.65,46.17 -287.31,10.25 -287.31,10.25l-96.17 -101.54z"/>
   <path class="fil6" d="M19199.43 21519.86c-129.49,-94.64 -122.78,-243.02 -130.37,-284.73 -7.59,-41.7 121.73,-623.76 178.46,-719.5 56.74,-95.75 790.79,-517.72 978.72,-507.08 187.93,10.63 776.6,237.59 858.15,390.06 81.56,152.48 -187.93,946.79 -237.58,1053.18 -49.66,106.39 -322.71,273.04 -421.99,329.78 -226.42,129.38 -1095.91,-167.07 -1225.39,-261.71z"/>
   <path class="fil5" d="M20792.78 21522.08c-98.68,98.83 -288.69,214.19 -367.96,259.49 -199.51,114.02 -898.27,-102.62 -1150.12,-220.47 -27.89,-63.05 -27.1,-124.26 -31.36,-147.63 -6.73,-36.95 107.83,-552.56 158.1,-637.38 50.25,-84.81 700.5,-458.61 866.97,-449.19 166.49,9.42 687.96,210.48 760.2,345.54 7.17,13.39 11.22,32.46 12.77,55.88 -56.59,291.22 -194.28,688.46 -228.37,761.49 -4.78,10.25 -11.66,21.06 -20.23,32.27z"/>
   <path class="fil21" d="M9953.61 10007.44c-9.59,-12.94 -6.88,-31.22 6.06,-40.8 12.94,-9.59 31.22,-6.88 40.8,6.06 0.34,0.46 113.91,158.32 740.11,406.19 322.49,127.65 529.46,304.49 662.57,471.29 133.38,167.16 192.58,324.46 219.64,412.42 52.89,171.89 178.18,613.66 178.53,614.92 4.28,15.52 -4.82,31.6 -20.34,35.89 -15.51,4.28 -31.6,-4.82 -35.88,-20.33 -0.35,-1.27 -125.31,-441.87 -178.07,-613.34 -25.76,-83.72 -82.17,-233.53 -209.59,-393.22 -127.72,-160.05 -326.89,-329.95 -638.34,-453.23 -641.68,-254 -765.12,-425.35 -765.49,-425.85z"/>
   <path class="fil21" d="M15330.61 7770.86c-6.87,-14.57 -0.62,-31.98 13.95,-38.86 14.58,-6.88 31.98,-0.62 38.86,13.95 0.49,1.03 173.37,356.57 -130.29,982.88 -173.06,356.93 -361.42,632.03 -500.35,834.96 -99.47,145.3 -173.19,252.97 -195.45,323.46 -26.96,85.4 -40.46,134.59 -40.46,185.29 0,51.58 13.56,107.9 40.69,207.37 57.22,209.8 222.92,872.73 223.39,874.63 3.91,15.64 -5.61,31.52 -21.25,35.42 -15.65,3.91 -31.52,-5.61 -35.43,-21.25 -0.48,-1.93 -168.58,-674.16 -222.93,-873.48 -28.66,-105.1 -42.99,-165.02 -42.99,-222.69 0,-58.54 14.42,-111.66 43.22,-202.89 24.78,-78.47 100.63,-189.26 202.99,-338.76 137.91,-201.45 324.89,-474.53 495.99,-827.43 291.42,-601.07 130.51,-931.64 130.06,-932.6z"/>
   <path class="fil21" d="M12776.81 8119.8c13.12,9.33 16.18,27.56 6.85,40.68 -9.33,13.12 -27.55,16.19 -40.68,6.85 -25.16,-17.97 -79.05,-70.7 -104.43,-192.27 -15.01,-71.9 -20.54,-169.01 -4.55,-298.97 42.46,-345.07 1019.75,-972.43 1022.55,-974.24 13.5,-8.77 31.58,-4.93 40.34,8.57 8.77,13.5 4.94,31.58 -8.57,40.34 -2.73,1.77 -957.17,614.77 -996.26,932.43 -15.15,123.14 -10.19,213.75 3.63,279.98 21.29,101.97 62.18,143.11 81.12,156.63z"/>
   <path class="fil21" d="M11585.79 8369.77c1.77,16.03 -9.8,30.47 -25.82,32.23 -16.03,1.77 -30.48,-9.8 -32.24,-25.82 -0.04,-0.45 -18.09,-158.46 -136.32,-189.1 -80.5,-20.86 -289.44,-54.2 -496.1,-67.34 -140,-8.9 -278.16,-8.46 -372.49,11.6 -214.39,45.63 -206.33,127.2 -206.32,127.42 1.13,16.09 -10.99,30.08 -27.08,31.21 -16.1,1.13 -30.08,-10.99 -31.21,-27.09 -0.03,-0.36 -12.31,-132.33 252.49,-188.68 100.1,-21.3 243.71,-21.94 388.27,-12.75 210.04,13.35 424,47.66 507.07,69.18 157.06,40.7 179.7,238.58 179.75,239.14z"/>
   <path class="fil21" d="M12338.86 12562.23c6.9,14.38 0.93,31.7 -13.41,38.78 -14.45,7.14 -31.96,1.19 -39.09,-13.26 -1.27,-2.55 -2.49,-5.51 -3.44,-8.74 -6.02,-19.77 -6.42,-61.97 32.74,-114.82 34.19,-46.14 100.93,-104.18 227.16,-167.26 89.43,-44.7 209.09,-92.35 368.74,-140.61 622.47,-188.18 1262.6,-351.84 1264.44,-352.3 15.65,-3.97 31.57,5.5 35.55,21.14 3.97,15.65 -5.5,31.57 -21.14,35.54 -1.84,0.46 -640.53,163.74 -1261.94,351.61 -157.09,47.48 -273.57,93.74 -359.59,136.74 -116.52,58.23 -176.61,109.73 -206.36,149.88 -24.79,33.47 -26.3,54.44 -23.65,63.18l-0.01 0.12z"/>
   <path class="fil6" d="M13158.06 14517.28l10 -39.99 562.83 -109.96c0,0 -25.99,166.93 -22.99,173.94 2.99,7 -549.84,-23.99 -549.84,-23.99z"/>
   <path class="fil16" d="M13173.17 14497.76c-5.36,-0.39 -9.4,-5.05 -9.02,-10.41 0.38,-5.35 5.04,-9.4 10.4,-9.02l553.29 40.36c5.36,0.38 9.4,5.04 9.02,10.4 -0.38,5.36 -5.05,9.4 -10.4,9.02l-553.29 -40.35z"/>
   <path class="fil16" d="M13748.39 14513.19c0.7,5.32 -3.03,10.23 -8.35,10.94 -5.32,0.7 -10.23,-3.03 -10.93,-8.36l-17.02 -126.39c-0.7,-5.32 3.03,-10.23 8.35,-10.93 5.33,-0.7 10.23,3.03 10.94,8.35l17.01 126.39z"/>
   <polygon class="fil6" points="15409.98,13728.82 15852.3,13489.01 15877.61,13502.32 15520.56,13823.41 "/>
   <path class="fil16" d="M15393.79 13748.09c-1.07,-5.25 2.33,-10.4 7.58,-11.48 5.25,-1.07 10.4,2.33 11.48,7.58l21.98 107.63 413.77 -358.18c4.06,-3.5 10.21,-3.07 13.71,0.99 3.51,4.05 3.07,10.21 -0.99,13.71l-426.16 368.9c-1.25,1.14 -2.81,1.97 -4.58,2.33 -5.26,1.07 -10.41,-2.33 -11.48,-7.58l-25.31 -123.9z"/>
  </g>
 </g>
</svg>
